<svg xmlns="http://www.w3.org/2000/svg" width="600" height="380" viewBox="0 0 600 380" fill="none">
<defs>
<linearGradient id="vc" x1="0" y1="0" x2="1" y2="0"><stop offset="0" stop-color="#7C5CFF"/><stop offset=".55" stop-color="#22D3EE"/><stop offset="1" stop-color="#F472B6"/></linearGradient>
<clipPath id="frame"><rect width="600" height="380" rx="24"/></clipPath>

<style>
text { font-family: 'Inter','Segoe UI',-apple-system,BlinkMacSystemFont,Helvetica,Arial,sans-serif; }
.mono { font-family: 'JetBrains Mono','SFMono-Regular',Consolas,'Liberation Mono',Menlo,monospace; }
@keyframes spin { to { transform: rotate(360deg) } }
@keyframes pulse { 0%,100% { opacity: 1 } 50% { opacity: .25 } }
@keyframes blink { 50% { opacity: 0 } }
@keyframes up { from { opacity: 0; transform: translateY(18px) } to { opacity: 1; transform: none } }
@keyframes draw { to { stroke-dashoffset: 0 } }
@keyframes ping { 0% { r: 4; opacity: .9 } 100% { r: 30; opacity: 0 } }
@keyframes twinkle { 0%,100% { opacity: .15 } 50% { opacity: 1 } }
.up { animation: up .9s cubic-bezier(.2,.7,.2,1) both; }

.ping { animation: ping 2.4s cubic-bezier(0,0,.2,1) infinite; }
.ringdraw { animation: ring 2.2s .4s cubic-bezier(.2,.7,.2,1) forwards; }
@keyframes ring { to { stroke-dashoffset: 64.1 } }
.eq { transform-box: fill-box; transform-origin: bottom; animation: eq 1s ease-in-out infinite alternate; }
@keyframes eq { 0% { transform: scaleY(.15) } 100% { transform: scaleY(1) } }

</style>
</defs>
<g clip-path="url(#frame)">
<rect width="600" height="380" fill="#0D1017"/><g transform="translate(16,16)"><g class="up" style="animation-delay:0.10s"><rect width="277" height="167" rx="18" fill="#121621" stroke="#1C2230"/><text x="20" y="34" class="mono" font-size="11" fill="#8B93A7" letter-spacing="1.5">BASED IN</text><text x="20" y="78" font-size="26" font-weight="700" fill="#F4F5F8">Lahore</text><text x="20" y="102" font-size="15" fill="#8B93A7">Pakistan · GMT+5</text><circle cx="215" cy="109" r="34" stroke="#1C2230"/><circle cx="215" cy="109" r="20" stroke="#1C2230"/><circle cx="215" cy="109" r="4" stroke="#22D3EE" stroke-width="1.5" class="ping" style="animation-delay:0s"/><circle cx="215" cy="109" r="4" stroke="#22D3EE" stroke-width="1.5" class="ping" style="animation-delay:0.8s"/><circle cx="215" cy="109" r="4" stroke="#22D3EE" stroke-width="1.5" class="ping" style="animation-delay:1.6s"/><circle cx="215" cy="109" r="4" fill="#22D3EE"/></g></g><g transform="translate(307,16)"><g class="up" style="animation-delay:0.22s"><rect width="277" height="167" rx="18" fill="#121621" stroke="#1C2230"/><text x="20" y="34" class="mono" font-size="11" fill="#8B93A7" letter-spacing="1.5">EXPERIENCE</text><text x="20" y="92" font-size="52" font-weight="800" letter-spacing="-2" fill="url(#vc)">2+</text><text x="20" y="118" font-size="15" fill="#8B93A7">years in production</text><circle cx="215" cy="109" r="34" stroke="#1C2230" stroke-width="6"/><circle cx="215" cy="109" r="34" stroke="url(#vc)" stroke-width="6" stroke-linecap="round" stroke-dasharray="213.6" stroke-dashoffset="213.6" transform="rotate(-90 215 109)" class="ringdraw"/></g></g><g transform="translate(16,197)"><g class="up" style="animation-delay:0.34s"><rect width="277" height="167" rx="18" fill="#121621" stroke="#1C2230"/><text x="20" y="34" class="mono" font-size="11" fill="#8B93A7" letter-spacing="1.5">STATUS</text><circle cx="28" cy="72" r="6" fill="#22C55E"/><circle cx="28" cy="72" r="6" stroke="#22C55E" stroke-width="2" class="ping"/><text x="44" y="80" font-size="24" font-weight="700" fill="#F4F5F8">Open to work</text><text x="20" y="106" font-size="15" fill="#8B93A7">Full-time · Contract</text><rect x="20" y="121" width="118" height="30" rx="15" fill="#F4F5F8"/><text x="79" y="141" text-anchor="middle" font-size="13" font-weight="600" fill="#07080C">Let's talk →</text></g></g><g transform="translate(307,197)"><g class="up" style="animation-delay:0.46s"><rect width="277" height="167" rx="18" fill="#121621" stroke="#1C2230"/><text x="20" y="34" class="mono" font-size="11" fill="#8B93A7" letter-spacing="1.5">RIGHT NOW</text><text x="20" y="74" font-size="20" font-weight="700" fill="#F4F5F8">Shipping real-time UIs</text><text x="20" y="96" font-size="14" fill="#8B93A7">in the zone 🎧</text><rect x="20" y="107" width="7" height="44" rx="3.5" fill="url(#vc)" class="eq" style="animation-duration:0.70s; animation-delay:-0.00s"/><rect x="33" y="107" width="7" height="44" rx="3.5" fill="url(#vc)" class="eq" style="animation-duration:0.80s; animation-delay:-0.13s"/><rect x="46" y="107" width="7" height="44" rx="3.5" fill="url(#vc)" class="eq" style="animation-duration:0.90s; animation-delay:-0.26s"/><rect x="59" y="107" width="7" height="44" rx="3.5" fill="url(#vc)" class="eq" style="animation-duration:1.00s; animation-delay:-0.39s"/><rect x="72" y="107" width="7" height="44" rx="3.5" fill="url(#vc)" class="eq" style="animation-duration:1.10s; animation-delay:-0.52s"/><rect x="85" y="107" width="7" height="44" rx="3.5" fill="url(#vc)" class="eq" style="animation-duration:1.20s; animation-delay:-0.65s"/><rect x="98" y="107" width="7" height="44" rx="3.5" fill="url(#vc)" class="eq" style="animation-duration:1.30s; animation-delay:-0.78s"/><rect x="111" y="107" width="7" height="44" rx="3.5" fill="url(#vc)" class="eq" style="animation-duration:1.40s; animation-delay:-0.91s"/><rect x="124" y="107" width="7" height="44" rx="3.5" fill="url(#vc)" class="eq" style="animation-duration:1.50s; animation-delay:-1.04s"/></g></g>
</g>
<rect x="0.5" y="0.5" width="599" height="379" rx="24" fill="none" stroke="#1C2230"/>
</svg>